<?xml version="1.0" encoding="UTF-8" standalone="no"?>
<svg width="456" height="456" viewBox="0 0 456 456" version="1.1" xmlns="http://www.w3.org/2000/svg">
    <!-- NeuroHelp Splash Screen -->
    
    <!-- Logo NeuroHelp - Maior para splash -->
    <g transform="translate(228, 150)">
        <!-- Círculo principal da cabeça -->
        <circle cx="0" cy="0" r="110" fill="none" stroke="#003D5C" stroke-width="14"/>
        
        <!-- Hemisfério esquerdo do cérebro -->
        <path d="M -65,-50 Q -80,-50 -80,-25 Q -80,-5 -68,10 Q -60,20 -48,26 L -48,-8 L -60,-23 Q -68,-35 -68,-45 Q -68,-50 -65,-50 Z" 
              fill="#003D5C"/>
        
        <!-- Hemisfério direito do cérebro -->
        <path d="M 65,-50 Q 80,-50 80,-25 Q 80,-5 68,10 Q 60,20 48,26 L 48,-8 L 60,-23 Q 68,-35 68,-45 Q 68,-50 65,-50 Z" 
              fill="#003D5C"/>
        
        <!-- Conexões neurais -->
        <circle cx="-40" cy="-32" r="5" fill="#003D5C"/>
        <circle cx="-20" cy="-25" r="5" fill="#003D5C"/>
        <circle cx="0" cy="-28" r="5" fill="#003D5C"/>
        <circle cx="20" cy="-25" r="5" fill="#003D5C"/>
        <circle cx="40" cy="-32" r="5" fill="#003D5C"/>
        
        <line x1="-40" y1="-32" x2="-20" y2="-25" stroke="#003D5C" stroke-width="2.5"/>
        <line x1="-20" y1="-25" x2="0" y2="-28" stroke="#003D5C" stroke-width="2.5"/>
        <line x1="0" y1="-28" x2="20" y2="-25" stroke="#003D5C" stroke-width="2.5"/>
        <line x1="20" y1="-25" x2="40" y2="-32" stroke="#003D5C" stroke-width="2.5"/>
        
        <!-- Headset superior -->
        <path d="M -65,40 Q 0,15 65,40" fill="none" stroke="#003D5C" stroke-width="10" stroke-linecap="round"/>
        
        <!-- Fone esquerdo -->
        <rect x="-74" y="36" width="24" height="38" rx="12" fill="#003D5C"/>
        <rect x="-70" y="40" width="16" height="30" rx="8" fill="#FFFFFF"/>
        
        <!-- Fone direito -->
        <rect x="50" y="36" width="24" height="38" rx="12" fill="#003D5C"/>
        <rect x="54" y="40" width="16" height="30" rx="8" fill="#FFFFFF"/>
        
        <!-- Microfone -->
        <line x1="-62" y1="74" x2="-62" y2="100" stroke="#003D5C" stroke-width="5" stroke-linecap="round"/>
        <circle cx="-62" cy="104" r="7" fill="#003D5C"/>
    </g>
    
    <!-- Texto NeuroHelp -->
    <text x="228" y="350" font-size="52" font-weight="bold" text-anchor="middle" fill="#003D5C" font-family="Arial, sans-serif">NeuroHelp</text>
    <text x="228" y="395" font-size="24" text-anchor="middle" fill="#003D5C" opacity="0.7" font-family="Arial, sans-serif">Sistema de Chamados</text>
</svg>