<?xml version="1.0" encoding="UTF-8" standalone="no"?>
<svg width="456" height="456" viewBox="0 0 456 456" version="1.1" xmlns="http://www.w3.org/2000/svg">
    <!-- Main Robot Icon - Foreground -->
    
    <!-- Chat bubbles (top) -->
    <g transform="translate(120, 100)">
        <!-- Left bubble -->
        <ellipse cx="30" cy="20" rx="35" ry="25" fill="none" stroke="#2196F3" stroke-width="6"/>
        <circle cx="20" cy="20" r="4" fill="#2196F3"/>
        <circle cx="30" cy="20" r="4" fill="#2196F3"/>
        <circle cx="40" cy="20" r="4" fill="#2196F3"/>
        
        <!-- Right bubble -->
        <ellipse cx="120" cy="20" rx="35" ry="25" fill="none" stroke="#2196F3" stroke-width="6"/>
        <circle cx="110" cy="20" r="4" fill="#2196F3"/>
        <circle cx="120" cy="20" r="4" fill="#2196F3"/>
        <circle cx="130" cy="20" r="4" fill="#2196F3"/>
    </g>
    
    <!-- Robot head -->
    <g transform="translate(228, 200)">
        <!-- Head -->
        <circle cx="0" cy="0" r="85" fill="#2196F3"/>
        
        <!-- Antenna -->
        <line x1="0" y1="-85" x2="0" y2="-105" stroke="#2196F3" stroke-width="6"/>
        <circle cx="0" cy="-110" r="10" fill="#2196F3"/>
        
        <!-- Eyes -->
        <rect x="-48" y="-22" width="33" height="23" rx="11" fill="white"/>
        <rect x="15" y="-22" width="33" height="23" rx="11" fill="white"/>
        
        <!-- Eye pupils -->
        <circle cx="-31" cy="-10" r="7" fill="#1a1a2e"/>
        <circle cx="32" cy="-10" r="7" fill="#1a1a2e"/>
        
        <!-- Smile -->
        <path d="M -30 25 Q 0 45 30 25" fill="none" stroke="white" stroke-width="6" stroke-linecap="round"/>
    </g>
    
    <!-- Robot body -->
    <g transform="translate(228, 315)">
        <!-- Body -->
        <rect x="-55" y="0" width="110" height="90" rx="18" fill="#2196F3"/>
        
        <!-- Display screen -->
        <rect x="-38" y="12" width="76" height="48" rx="8" fill="white"/>
        
        <!-- Message dots on screen -->
        <circle cx="-15" cy="30" r="5" fill="#2196F3"/>
        <circle cx="0" cy="30" r="5" fill="#2196F3"/>
        <circle cx="15" cy="30" r="5" fill="#2196F3"/>
    </g>
</svg>