<?xml version="1.0" standalone="no"?>
<!DOCTYPE svg PUBLIC "-//W3C//DTD SVG 20010904//EN"
 "http://www.w3.org/TR/2001/REC-SVG-20010904/DTD/svg10.dtd">
<svg version="1.0" xmlns="http://www.w3.org/2000/svg"
 width="1024.000000pt" height="1024.000000pt" viewBox="0 0 1024.000000 1024.000000"
 preserveAspectRatio="xMidYMid meet">

<g transform="translate(0.000000,1024.000000) scale(0.100000,-0.100000)"
fill="#000000" stroke="none">
<path d="M4985 9124 c-182 -12 -435 -68 -610 -134 -510 -194 -909 -559 -1140
-1043 -88 -185 -159 -411 -180 -575 -6 -43 -11 -53 -28 -56 -105 -22 -136 -33
-191 -70 -40 -28 -75 -63 -103 -104 -69 -102 -73 -128 -73 -470 0 -271 2 -306
20 -363 37 -119 140 -222 259 -259 52 -17 92 -20 225 -20 l162 0 -4 463 c-6
646 10 830 99 1101 204 629 753 1096 1410 1201 123 19 391 22 524 6 271 -34
569 -152 805 -319 116 -81 316 -277 398 -390 170 -231 283 -498 335 -792 20
-115 22 -158 22 -525 0 -424 -7 -516 -56 -708 -66 -262 -200 -498 -378 -670
-104 -100 -183 -155 -305 -212 -118 -56 -196 -75 -331 -82 l-110 -5 -38 46
c-68 82 -84 86 -335 86 -214 0 -219 0 -270 -26 -56 -28 -91 -63 -125 -128 -16
-31 -22 -59 -22 -117 0 -100 36 -176 108 -225 74 -51 106 -56 337 -52 l208 3
44 30 c24 17 53 47 66 67 l24 35 136 6 c85 3 167 13 217 26 44 10 81 18 83 16
11 -10 -88 -226 -138 -303 -66 -100 -129 -160 -205 -196 -90 -43 -141 -48
-435 -44 l-275 3 -65 31 c-36 18 -93 54 -126 80 -139 110 -483 402 -535 454
-86 86 -82 67 -155 839 -3 35 -2 61 3 59 202 -99 270 -121 427 -138 134 -15
256 4 363 54 139 66 253 205 269 327 l7 49 206 -1 206 0 30 -42 c44 -61 120
-97 205 -97 94 0 155 24 212 82 107 110 103 282 -7 393 -52 52 -107 75 -181
75 -109 0 -189 -43 -244 -131 l-30 -49 -195 0 -195 0 0 48 0 47 228 228 227
227 127 0 c116 0 127 -2 133 -19 8 -27 80 -90 122 -108 45 -18 151 -18 194 0
61 26 114 73 144 128 26 48 30 63 29 139 0 68 -4 93 -21 126 -105 199 -374
204 -489 8 l-26 -44 -127 0 c-69 0 -142 -4 -161 -10 -25 -7 -82 -57 -207 -182
l-173 -173 0 215 0 215 228 228 227 227 35 -10 c89 -26 184 -1 259 66 63 56
86 114 85 209 -1 146 -101 251 -250 263 -175 14 -308 -124 -291 -302 l6 -62
-149 -149 -149 -149 -3 455 c-3 453 -3 454 -26 502 -48 96 -139 141 -282 140
-302 -1 -701 -197 -954 -466 -124 -133 -239 -309 -307 -472 -89 -214 -125
-428 -116 -700 12 -351 101 -606 315 -895 8 -11 18 -89 27 -201 18 -223 50
-538 71 -714 32 -256 69 -318 322 -537 471 -408 526 -449 657 -491 67 -21 87
-22 410 -22 295 0 349 2 404 18 292 80 514 368 626 811 l33 129 68 50 c91 66
265 243 336 342 112 157 198 338 250 521 l23 82 56 6 c139 14 259 98 321 224
l33 67 3 320 c4 366 -2 405 -69 499 -63 88 -190 166 -272 166 -34 0 -39 11
-66 157 -76 409 -347 874 -668 1143 -315 266 -703 441 -1088 494 -118 16 -332
26 -430 20z m65 -794 c13 -8 15 -146 18 -1121 1 -755 -1 -1123 -8 -1150 -14
-49 -63 -99 -132 -133 -192 -94 -484 -20 -702 176 -165 149 -298 395 -347 643
-9 45 -14 138 -14 260 0 162 4 206 24 295 110 498 483 884 974 1010 119 31
163 36 187 20z m884 -395 c58 -54 20 -155 -59 -155 -51 0 -85 36 -85 90 0 81
85 120 144 65z m365 -862 c66 -62 30 -163 -58 -163 -32 0 -44 6 -65 31 -43 50
-34 102 24 142 35 24 65 21 99 -10z m-271 -799 c64 -73 -20 -184 -107 -140
-62 32 -68 91 -16 143 30 30 40 35 68 29 17 -3 42 -17 55 -32z"/>
<path d="M4673 7940 c-31 -18 -41 -39 -58 -123 -12 -59 -44 -77 -188 -107 -71
-14 -168 -77 -214 -138 -68 -90 -87 -243 -44 -354 51 -131 172 -215 330 -228
95 -8 130 -24 149 -66 17 -36 15 -64 -8 -101 -26 -42 -67 -53 -213 -53 -89 0
-128 -4 -153 -16 -52 -25 -74 -59 -74 -113 0 -85 51 -123 153 -114 l57 5 0
-39 c0 -136 45 -249 134 -339 149 -149 366 -138 366 20 0 22 -9 45 -26 65 -23
28 -42 36 -126 55 -69 16 -128 109 -128 202 0 30 5 36 61 65 76 41 142 113
169 187 30 77 25 215 -9 280 -58 112 -157 178 -290 192 -95 10 -121 20 -154
60 -20 23 -27 43 -27 74 0 75 51 119 156 136 128 21 232 97 289 215 34 69 43
151 21 193 -31 60 -112 80 -173 42z"/>
<path d="M1100 2935 l0 -585 115 0 116 0 -3 395 c-2 217 -1 395 2 395 3 -1 24
-33 47 -73 24 -40 132 -216 241 -392 l198 -320 132 -3 132 -3 0 586 0 585
-115 0 -115 0 -2 -400 -3 -399 -194 317 c-107 174 -219 354 -248 400 l-53 82
-125 0 -125 0 0 -585z"/>
<path d="M5857 3513 c-4 -3 -7 -267 -7 -585 l0 -578 120 0 120 0 0 250 0 250
245 0 245 0 0 -250 0 -250 121 0 122 0 -5 583 -5 582 -117 3 -116 3 0 -236 0
-235 -245 0 -245 0 0 235 0 235 -113 0 c-63 0 -117 -3 -120 -7z"/>
<path d="M7980 2935 l0 -585 115 0 115 0 0 585 0 585 -115 0 -115 0 0 -585z"/>
<path d="M2512 3202 c-117 -42 -206 -131 -253 -252 -26 -67 -37 -222 -20 -298
34 -158 153 -277 312 -312 80 -18 220 -8 291 19 93 36 184 133 213 229 6 22 6
22 -102 22 l-109 0 -23 -31 c-64 -86 -232 -91 -308 -8 -26 28 -53 89 -53 119
0 20 5 20 310 20 l310 0 0 58 c-1 195 -85 348 -230 416 -57 26 -77 30 -175 33
-89 3 -120 0 -163 -15z m234 -171 c50 -23 84 -68 91 -121 l6 -40 -191 0 -191
0 8 28 c12 41 36 85 58 104 53 48 149 61 219 29z"/>
<path d="M4560 3199 c-51 -23 -106 -72 -123 -109 -10 -22 -12 -16 -15 48 l-3
72 -109 0 -110 0 0 -430 0 -430 115 0 115 0 0 228 c0 273 7 308 74 370 49 45
85 56 170 50 l56 -3 0 113 0 112 -62 0 c-42 0 -78 -7 -108 -21z"/>
<path d="M5088 3201 c-202 -66 -309 -237 -295 -471 8 -142 66 -253 169 -323
75 -52 129 -68 239 -74 110 -6 182 6 254 44 156 80 230 208 229 393 -1 203
-79 337 -243 413 -60 28 -76 31 -181 34 -92 3 -126 -1 -172 -16z m237 -180
c85 -39 129 -123 129 -246 -1 -174 -100 -280 -244 -261 -105 14 -172 104 -179
239 -4 93 11 153 51 208 53 73 158 99 243 60z"/>
<path d="M7265 3203 c-147 -53 -242 -161 -274 -311 -39 -187 15 -373 138 -470
87 -69 146 -87 291 -87 119 0 128 1 190 31 36 17 82 45 103 63 34 31 97 139
97 168 0 10 -24 13 -106 13 -105 0 -105 0 -131 -30 -71 -85 -216 -95 -296 -21
-35 32 -53 65 -62 114 l-7 37 305 0 c168 0 308 3 310 8 11 21 -13 212 -34 267
-31 83 -121 173 -204 205 -84 32 -248 38 -320 13z m204 -163 c58 -16 100 -67
116 -137 l7 -33 -186 0 c-209 0 -203 -3 -167 76 37 81 135 122 230 94z"/>
<path d="M8725 3192 c-34 -16 -73 -43 -87 -61 -15 -17 -29 -31 -32 -31 -3 0
-6 25 -6 55 l0 55 -105 0 -105 0 0 -580 0 -580 110 0 110 0 0 196 0 196 33
-32 c45 -45 110 -72 188 -78 88 -6 157 12 228 59 261 174 231 677 -47 802 -33
15 -73 22 -137 24 -83 4 -95 2 -150 -25z m158 -166 c74 -32 116 -108 124 -227
13 -180 -85 -303 -222 -282 -54 8 -86 25 -123 67 -39 45 -52 91 -52 187 0 131
39 216 114 250 49 22 114 24 159 5z"/>
<path d="M3222 2873 c4 -387 5 -391 89 -467 61 -55 121 -76 214 -76 98 0 159
23 217 81 l48 48 0 -54 0 -55 115 0 116 0 -1 430 -2 430 -119 0 -119 0 0 -270
c0 -284 -4 -315 -48 -363 -68 -76 -198 -73 -256 6 -20 27 -21 43 -24 328 l-3
299 -115 0 -115 0 3 -337z"/>
</g>
</svg>
